<?xml version="1.0" encoding="utf-8"?>
<!-- Generator: Adobe Illustrator 19.0.0, SVG Export Plug-In . SVG Version: 6.00 Build 0)  -->
<svg version="1.1" id="Calque_1" xmlns="http://www.w3.org/2000/svg" xmlns:xlink="http://www.w3.org/1999/xlink" x="0px" y="0px"
	 viewBox="0 0 595.3 841.9" style="enable-background:new 0 0 595.3 841.9;" xml:space="preserve">
<style type="text/css">
	.st0{fill:#EF4136;}
	.st1{fill:#00B3F0;}
	.st2{fill:#004282;}
	.st3{font-family:'Montserrat-Regular';}
	.st4{font-size:13px;}
	.st5{letter-spacing:5.9;}
	.st6{fill:#BE1E2D;}
	.st7{fill:#007DC5;}
	.st8{font-family:'MonaBella';}
	.st9{font-size:42.9344px;}
	.st10{letter-spacing:7.9;}
	.st11{fill:none;stroke:#ED1C24;stroke-miterlimit:10;}
	.st12{fill:#FFFFFF;stroke:#FFFFFF;stroke-miterlimit:10;}
	.st13{fill:#FAA61A;}
	.st14{fill-rule:evenodd;clip-rule:evenodd;fill:#FAA61A;}
</style>
<g id="XMLID_2_">
	<g id="XMLID_5_">
		<path id="XMLID_26_" class="st0" d="M143.8,380.6c0,3.6-2.9,6.6-6.6,6.6c-3.6,0-6.6-2.9-6.6-6.6c0-3.6,2.9-6.6,6.6-6.6
			C140.9,374,143.8,377,143.8,380.6z M137.3,409c-3.6,0-6.6,2.9-6.6,6.6c0,3.6,2.9,6.6,6.6,6.6c3.6,0,6.6-2.9,6.6-6.6
			C143.8,412,140.9,409,137.3,409z M137.3,391.5c-3.6,0-6.6,2.9-6.6,6.6s2.9,6.6,6.6,6.6c3.6,0,6.6-2.9,6.6-6.6
			S140.9,391.5,137.3,391.5z M76.7,374c-3.6,0-6.6,2.9-6.6,6.6c0,3.6,2.9,6.6,6.6,6.6c3.6,0,6.6-2.9,6.6-6.6
			C83.3,377,80.3,374,76.7,374z M76.7,409c-3.6,0-6.6,2.9-6.6,6.6c0,3.6,2.9,6.6,6.6,6.6c3.6,0,6.6-2.9,6.6-6.6
			C83.3,412,80.3,409,76.7,409z M76.7,391.5c-3.6,0-6.6,2.9-6.6,6.6s2.9,6.6,6.6,6.6c3.6,0,6.6-2.9,6.6-6.6S80.3,391.5,76.7,391.5z
			 M101.3,359.9c-1.8,3.1-0.7,7.2,2.4,9c3.1,1.8,7.2,0.7,9-2.4c1.8-3.1,0.7-7.2-2.4-9C107.1,355.6,103.1,356.7,101.3,359.9z
			 M116.5,368.6c-1.8,3.1-0.7,7.2,2.4,9c3.1,1.8,7.2,0.7,9-2.4c1.8-3.1,0.7-7.2-2.4-9C122.3,364.4,118.3,365.5,116.5,368.6z
			 M101.3,429.8c-1.8,3.1-0.7,7.2,2.4,9c3.1,1.8,7.2,0.7,9-2.4c1.8-3.1,0.7-7.2-2.4-9C107.2,425.6,103.1,426.6,101.3,429.8z
			 M86.2,421c-1.8,3.1-0.7,7.2,2.4,9c3.1,1.8,7.2,0.7,9-2.4c1.8-3.1,0.7-7.2-2.4-9C92,416.8,88,417.9,86.2,421z M86.2,375.2
			c1.8,3.1,5.8,4.2,9,2.4c3.1-1.8,4.2-5.8,2.4-9c-1.8-3.1-5.8-4.2-9-2.4C85.4,368,84.4,372,86.2,375.2z M116.5,427.6
			c1.8,3.1,5.8,4.2,9,2.4c3.1-1.8,4.2-5.8,2.4-9c-1.8-3.1-5.8-4.2-9-2.4C115.7,420.4,114.6,424.5,116.5,427.6z"/>
		<path id="XMLID_7_" class="st1" d="M66.9,371.9c0,2.9-2.4,5.3-5.3,5.3c-2.9,0-5.3-2.4-5.3-5.3s2.4-5.3,5.3-5.3
			C64.5,366.6,66.9,369,66.9,371.9z M61.6,419c-2.9,0-5.3,2.4-5.3,5.3c0,2.9,2.4,5.3,5.3,5.3c2.9,0,5.3-2.4,5.3-5.3
			C66.9,421.4,64.5,419,61.6,419z M61.6,401.5c-2.9,0-5.3,2.4-5.3,5.3c0,2.9,2.4,5.3,5.3,5.3c2.9,0,5.3-2.4,5.3-5.3
			C66.9,403.9,64.5,401.5,61.6,401.5z M61.6,384.1c-2.9,0-5.3,2.4-5.3,5.3c0,2.9,2.4,5.3,5.3,5.3c2.9,0,5.3-2.4,5.3-5.3
			C66.9,386.4,64.5,384.1,61.6,384.1z M152.4,366.6c-2.9,0-5.3,2.4-5.3,5.3s2.4,5.3,5.3,5.3c2.9,0,5.3-2.4,5.3-5.3
			S155.4,366.6,152.4,366.6z M152.4,419c-2.9,0-5.3,2.4-5.3,5.3c0,2.9,2.4,5.3,5.3,5.3c2.9,0,5.3-2.4,5.3-5.3
			C157.7,421.4,155.4,419,152.4,419z M152.4,401.5c-2.9,0-5.3,2.4-5.3,5.3c0,2.9,2.4,5.3,5.3,5.3c2.9,0,5.3-2.4,5.3-5.3
			C157.7,403.9,155.4,401.5,152.4,401.5z M152.4,384.1c-2.9,0-5.3,2.4-5.3,5.3c0,2.9,2.4,5.3,5.3,5.3c2.9,0,5.3-2.4,5.3-5.3
			C157.7,386.4,155.4,384.1,152.4,384.1z M102.4,447.9c-1.5,2.5-0.6,5.8,1.9,7.3c2.5,1.5,5.8,0.6,7.3-1.9c1.5-2.5,0.6-5.8-1.9-7.3
			C107.1,444.5,103.8,445.4,102.4,447.9z M87.2,439.2c-1.5,2.5-0.6,5.8,1.9,7.3c2.5,1.5,5.8,0.6,7.3-1.9c1.5-2.5,0.6-5.8-1.9-7.3
			C92,435.7,88.7,436.6,87.2,439.2z M72.1,430.4c-1.5,2.5-0.6,5.8,1.9,7.3c2.5,1.5,5.8,0.6,7.3-1.9c1.5-2.5,0.6-5.8-1.9-7.3
			C76.8,427,73.6,427.9,72.1,430.4z M102.4,343c-1.5,2.5-0.6,5.8,1.9,7.3c2.5,1.5,5.8,0.6,7.3-1.9c1.5-2.5,0.6-5.8-1.9-7.3
			C107.1,339.6,103.9,340.5,102.4,343z M132.7,360.5c-1.5,2.5-0.6,5.8,1.9,7.3c2.5,1.5,5.8,0.6,7.3-1.9c1.5-2.5,0.6-5.8-1.9-7.3
			C137.4,357.1,134.1,357.9,132.7,360.5z M117.5,351.7c-1.5,2.5-0.6,5.8,1.9,7.3c2.5,1.5,5.8,0.6,7.3-1.9c1.5-2.5,0.6-5.8-1.9-7.3
			C122.3,348.3,119,349.2,117.5,351.7z M132.7,435.7c1.5,2.5,4.7,3.4,7.3,1.9c2.5-1.5,3.4-4.7,1.9-7.3c-1.5-2.5-4.7-3.4-7.3-1.9
			C132.1,430,131.2,433.2,132.7,435.7z M117.5,444.5c1.5,2.5,4.7,3.4,7.3,1.9c2.5-1.5,3.4-4.7,1.9-7.3c-1.5-2.5-4.7-3.4-7.3-1.9
			C116.9,438.7,116.1,441.9,117.5,444.5z M87.2,357.1c1.5,2.5,4.7,3.4,7.3,1.9c2.5-1.5,3.4-4.7,1.9-7.3c-1.5-2.5-4.7-3.4-7.3-1.9
			C86.6,351.3,85.8,354.5,87.2,357.1z M72.1,365.8c1.5,2.5,4.7,3.4,7.3,1.9c2.5-1.5,3.4-4.7,1.9-7.3c-1.5-2.5-4.7-3.4-7.3-1.9
			C71.5,360,70.6,363.2,72.1,365.8z"/>
		<path id="XMLID_6_" class="st2" d="M125.8,400.1c-2.3-1.3-5-1.2-7.1-0.1c-0.6,0.3-1.3,0.4-2,0.2c-0.2-0.1-0.5-0.2-0.7-0.3
			c-1.4-0.8-1.4-2.8,0-3.6c0,0,0,0,0,0l0,0c0.8-0.5,1.8-0.5,2.6-0.1c2.5,1.3,5.6,1.1,8.1-0.7c2.9-2.1,3.9-6.1,2.4-9.3
			c-2-4.2-7.1-5.7-11-3.4c-2.2,1.4-3.5,3.7-3.7,6.1c0,0.6-0.3,1.3-0.7,1.7c-0.2,0.2-0.4,0.4-0.6,0.5c-1.4,0.8-3.1-0.2-3.2-1.8
			c0,0,0,0,0,0v0c0-0.9,0.5-1.8,1.3-2.3c2.2-1.5,3.7-4.1,3.4-7c-0.3-3.9-3.5-7-7.4-7.1c-4.5-0.1-8.1,3.5-8,7.9
			c0.1,2.6,1.5,4.9,3.5,6.2c0.8,0.5,1.2,1.4,1.2,2.3v0c0,0,0,0,0,0c0,1.5-1.7,2.6-3.1,1.8c0,0,0,0,0,0l0,0c-0.8-0.5-1.3-1.3-1.4-2.2
			c-0.1-2.7-1.7-5.3-4.3-6.5c-3.5-1.7-7.8-0.4-9.9,2.9c-2.3,3.8-1,8.7,2.9,10.8c2.3,1.2,5,1.2,7.1,0.1c0.8-0.4,1.8-0.4,2.6,0.1l0,0
			c0,0,0,0,0,0c1.3,0.8,1.3,2.8,0,3.6c0,0,0,0,0,0l0,0c-0.8,0.5-1.8,0.5-2.6,0.1c-2.4-1.2-5.4-1.2-7.8,0.5c-3.2,2.2-4.3,6.6-2.4,10
			c2.1,3.9,7.1,5.2,10.8,2.9c2.2-1.4,3.5-3.7,3.6-6.2c0-0.9,0.6-1.7,1.4-2.2l0,0c0,0,0,0,0,0c1.4-0.8,3.1,0.2,3.1,1.8c0,0,0,0,0,0v0
			c0,0.9-0.5,1.8-1.3,2.3c-2.3,1.5-3.8,4.3-3.4,7.4c0.4,3.6,3.3,6.4,6.9,6.7c4.6,0.4,8.5-3.3,8.4-7.8c-0.1-2.6-1.4-4.9-3.4-6.2
			c-0.6-0.4-1-0.9-1.2-1.6c-0.1-0.2-0.1-0.5-0.1-0.7c0-1.6,1.7-2.6,3.1-1.8c0,0,0,0,0,0l0,0c0.8,0.5,1.3,1.3,1.4,2.2
			c0.2,2.8,1.8,5.5,4.7,6.7c3.3,1.4,7.2,0.3,9.2-2.6C131.1,407.5,129.8,402.3,125.8,400.1z"/>
	</g>
</g>
<g id="XMLID_48_">
	<text id="XMLID_64_" transform="matrix(1.0091 1.917290e-004 -1.900000e-004 1 134.1679 455.861)" class="st3 st4 st5">LANGUES &amp; TECHNOLOGIES</text>
</g>
<g id="XMLID_96_">
	<path id="XMLID_102_" class="st6" d="M359.9,342.9l19.4,48.6l-19.4,48.6H168.3l19.3-48.2l0.1-0.4l-0.1-0.4l-19.3-48.2H359.9
		 M360.6,341.9H166.8l19.8,49.6l-19.8,49.6h193.8l19.8-49.6L360.6,341.9L360.6,341.9z"/>
</g>
<polygon id="XMLID_95_" class="st7" points="166.8,341.9 186.6,391.5 380.4,391.5 360.6,341.9 "/>
<g id="XMLID_53_">
	<g id="XMLID_61_">
		<text id="XMLID_62_" transform="matrix(1.2663 0 -0.3915 0.9202 257.1888 433.0705)" class="st0 st8 st9 st10">TIC</text>
	</g>
	<g id="XMLID_56_">
		<text id="XMLID_57_" transform="matrix(1.2663 0 -0.3915 0.9202 257.1888 433.0705)" class="st11 st8 st9 st10">TIC</text>
	</g>
</g>
<g id="XMLID_101_">
	<polygon id="XMLID_98_" class="st12" points="272.8,349.1 303.9,349.1 301.3,355.8 279.2,355.8 276.6,362.7 296,362.7 293.5,369.4 
		274,369.4 271.3,376.5 259.8,383.2 272.8,349.1 	"/>
	<polygon id="XMLID_51_" class="st12" points="313.8,348.6 322.9,348.6 313.4,373.4 327.2,373.4 323.7,382.6 300.8,382.6 
		313.8,348.6 	"/>
	<path id="XMLID_49_" class="st12" d="M236.2,383.7c-3.2,0-6-0.4-8.3-1.3c-2.3-0.9-4.1-2.1-5.4-3.6c-1.3-1.6-2.1-3.4-2.3-5.5
		c-0.2-2.1,0.1-4.5,1.1-7l0-0.1c0.9-2.4,2.3-4.7,4.2-6.8c1.9-2.1,4.1-4,6.6-5.6c2.5-1.6,5.3-2.9,8.3-3.8c3-0.9,6.1-1.4,9.2-1.4
		c1.8,0,3.5,0.1,4.9,0.3c1.4,0.2,2.7,0.5,3.9,0.9c1.1,0.4,2.2,0.9,3.1,1.5c0.9,0.6,1.8,1.2,2.5,2l-7.9,5.7c-0.6-0.6-1.2-1-1.8-1.5
		c-0.6-0.4-1.3-0.8-2-1.1c-0.7-0.3-1.6-0.5-2.5-0.7c-0.9-0.2-2-0.2-3.1-0.2c-1.7,0-3.3,0.3-5,0.9c-1.7,0.6-3.2,1.3-4.6,2.3
		c-1.4,1-2.7,2.1-3.8,3.4c-1.1,1.3-1.9,2.7-2.5,4.1l0,0.1c-0.6,1.6-0.8,3-0.7,4.3c0.1,1.3,0.5,2.5,1.3,3.4c0.7,1,1.8,1.7,3.1,2.3
		c1.3,0.5,2.9,0.8,4.7,0.8c3.4,0,6.5-0.7,9.3-2.1l1.9-4.9h-9.1l2.5-6.5h17.9l-5.6,14.8c-2.7,1.5-5.7,2.8-9,3.8
		C243.5,383.2,239.9,383.7,236.2,383.7L236.2,383.7z"/>
</g>
<g id="XMLID_1_">
	<path id="XMLID_87_" class="st0" d="M235.8,406.8h-5.3c-1.9,2.5-5.3,4.1-9.2,4.1c-3.9,0-7.4-1.7-9.2-4.1h-5.3
		c-10.9,0-19.7,6.9-19.7,15.3c0,8.5,8.8,15.3,19.7,15.3h1.7c1.5,0,2.7-1.1,2.6-2.3c-0.1-1.1-1.4-1.9-2.7-1.9h-1.5
		c-7.5,0-12.9-3.3-12.9-9.2c0-5.5,5.7-9.4,12.9-9.4h29.2c7.1,0,12.9,3.9,12.9,9.4c0,6-5.1,9.9-12.9,9.9h-1.7c-1.3,0-2.4,0.7-2.4,1.7
		c0,1,1.1,1.7,2.4,1.7h1.7c10.9,0,19.7-6.9,19.7-15.3C255.5,413.7,246.7,406.8,235.8,406.8z"/>
	<path id="XMLID_86_" class="st13" d="M221.2,395.8c-4.8,0-8.7,3-8.7,6.8c0,3.7,3.9,6.8,8.7,6.8c4.8,0,8.7-3,8.7-6.8
		C229.9,398.9,226,395.8,221.2,395.8z"/>
	<g id="XMLID_4_">
		<path id="XMLID_210_" class="st14" d="M203.4,419.4c0-1,1-1.8,2.3-1.8s2.3,0.8,2.3,1.8s-1,1.8-2.3,1.8S203.4,420.4,203.4,419.4z
			 M209.6,419.4c0,1,1,1.8,2.3,1.8s2.3-0.8,2.3-1.8s-1-1.8-2.3-1.8S209.6,418.4,209.6,419.4z M215.8,419.4c0,1,1,1.8,2.3,1.8
			c1.3,0,2.3-0.8,2.3-1.8s-1-1.8-2.3-1.8C216.8,417.6,215.8,418.4,215.8,419.4z M222,419.4c0,1,1,1.8,2.3,1.8c1.3,0,2.3-0.8,2.3-1.8
			s-1-1.8-2.3-1.8C223,417.6,222,418.4,222,419.4z M228.2,419.4c0,1,1,1.8,2.3,1.8s2.3-0.8,2.3-1.8s-1-1.8-2.3-1.8
			S228.2,418.4,228.2,419.4z M234.4,419.4c0,1,1,1.8,2.3,1.8s2.3-0.8,2.3-1.8s-1-1.8-2.3-1.8S234.4,418.4,234.4,419.4z M203.4,424
			c0,1,1,1.8,2.3,1.8s2.3-0.8,2.3-1.8c0-1-1-1.8-2.3-1.8S203.4,423.1,203.4,424z M209.6,424c0,1,1,1.8,2.3,1.8s2.3-0.8,2.3-1.8
			c0-1-1-1.8-2.3-1.8S209.6,423.1,209.6,424z M215.8,424c0,1,1,1.8,2.3,1.8c1.3,0,2.3-0.8,2.3-1.8c0-1-1-1.8-2.3-1.8
			C216.8,422.2,215.8,423.1,215.8,424z M222,424c0,1,1,1.8,2.3,1.8c1.3,0,2.3-0.8,2.3-1.8c0-1-1-1.8-2.3-1.8
			C223,422.2,222,423.1,222,424z M228.2,424c0,1,1,1.8,2.3,1.8s2.3-0.8,2.3-1.8c0-1-1-1.8-2.3-1.8S228.2,423.1,228.2,424z
			 M234.4,424c0,1,1,1.8,2.3,1.8s2.3-0.8,2.3-1.8c0-1-1-1.8-2.3-1.8S234.4,423.1,234.4,424z M203.4,428.7c0,1,1,1.8,2.3,1.8
			s2.3-0.8,2.3-1.8c0-1-1-1.8-2.3-1.8S203.4,427.7,203.4,428.7z M209.6,428.7c0,1,1,1.8,2.3,1.8s2.3-0.8,2.3-1.8c0-1-1-1.8-2.3-1.8
			S209.6,427.7,209.6,428.7z M215.8,428.7c0,1,1,1.8,2.3,1.8c1.3,0,2.3-0.8,2.3-1.8c0-1-1-1.8-2.3-1.8
			C216.8,426.9,215.8,427.7,215.8,428.7z M222,428.7c0,1,1,1.8,2.3,1.8c1.3,0,2.3-0.8,2.3-1.8c0-1-1-1.8-2.3-1.8
			C223,426.9,222,427.7,222,428.7z M228.2,428.7c0,1,1,1.8,2.3,1.8s2.3-0.8,2.3-1.8c0-1-1-1.8-2.3-1.8S228.2,427.7,228.2,428.7z
			 M234.4,428.7c0,1,1,1.8,2.3,1.8s2.3-0.8,2.3-1.8c0-1-1-1.8-2.3-1.8S234.4,427.7,234.4,428.7z"/>
	</g>
</g>
</svg>
